<mxfile host="app.diagrams.net" modified="2023-12-13T12:50:37.566Z" agent="Mozilla/5.0 (Macintosh; Intel Mac OS X 10_15_7) AppleWebKit/537.36 (KHTML, like Gecko) Chrome/120.0.0.0 Safari/537.36" version="22.1.8" etag="3AjbUBz_awgff1dUv2Q4" type="github">
  <diagram name="第 1 页" id="xHKpR8_dlMubft3PjT-r">
    <mxGraphModel>
      <root>
        <mxCell id="0" />
        <mxCell id="1" parent="0" />
      </root>
    </mxGraphModel>
  </diagram>
</mxfile>
